<?xml version="1.0" encoding="UTF-8" standalone="no"?>
<!DOCTYPE svg PUBLIC "-//W3C//DTD SVG 1.1//EN" "http://www.w3.org/Graphics/SVG/1.1/DTD/svg11.dtd">
<!-- Generated by Microsoft Visio, SVG Export tmolex-and-mahti.svg Page-1 -->
<svg xmlns="http://www.w3.org/2000/svg" xmlns:xlink="http://www.w3.org/1999/xlink" xmlns:ev="http://www.w3.org/2001/xml-events"
		width="11.6929in" height="8.26772in" viewBox="0 0 841.89 595.276" xml:space="preserve" color-interpolation-filters="sRGB"
		class="st12">
	<style type="text/css">
	<![CDATA[
		.st1 {fill:#5b9bd5}
		.st2 {stroke:#ffffff;stroke-linecap:round;stroke-linejoin:round;stroke-width:0.5}
		.st3 {fill:#ffffff}
		.st4 {fill:#a5a5a5}
		.st5 {fill:#5b9bd5;stroke:#ffffff;stroke-linecap:round;stroke-linejoin:round;stroke-width:0.5}
		.st6 {fill:#aad288;stroke:#ffffff;stroke-linecap:round;stroke-linejoin:round;stroke-width:0.5}
		.st7 {marker-end:url(#mrkr13-28);marker-start:url(#mrkr13-26);stroke:#5592c9;stroke-linecap:round;stroke-linejoin:round;stroke-width:0.75}
		.st8 {fill:#5592c9;fill-opacity:1;stroke:#5592c9;stroke-opacity:1;stroke-width:0.22935779816514}
		.st9 {fill:#a5a5a5;stroke:#ffffff;stroke-linecap:round;stroke-linejoin:round;stroke-width:0.5}
		.st10 {fill:#ffffff;font-family:Calibri;font-size:1.00001em}
		.st11 {font-size:1em}
		.st12 {fill:none;fill-rule:evenodd;font-size:12px;overflow:visible;stroke-linecap:square;stroke-miterlimit:3}
	]]>
	</style>

	<defs id="Markers">
		<g id="lend13">
			<path d="M 3 1 L 0 0 L 3 -1 L 3 1 " style="stroke:none"/>
		</g>
		<marker id="mrkr13-26" class="st8" refX="12.6" orient="auto" markerUnits="strokeWidth" overflow="visible">
			<use xlink:href="#lend13" transform="scale(4.36) "/>
		</marker>
		<marker id="mrkr13-28" class="st8" refX="-13.08" orient="auto" markerUnits="strokeWidth" overflow="visible">
			<use xlink:href="#lend13" transform="scale(-4.36,-4.36) "/>
		</marker>
	</defs>
	<g>
		<title>Page-1</title>
		<g id="group4-1" transform="translate(552.756,-198.425)">
			<title>Mainframe</title>
			<g id="shape5-2" transform="translate(5.68158,1.13687E-13)">
				<title>Sheet.5</title>
				<path d="M0 595.28 L59.5 595.28 L59.5 524.41 L0 524.41 L0 595.28 Z" class="st1"/>
				<path d="M0 595.28 L59.5 595.28 L59.5 524.41 L0 524.41 L0 595.28" class="st2"/>
				<path d="M29.75 595.28 L29.75 524.41" class="st2"/>
			</g>
			<g id="shape6-6" transform="translate(11.5726,-5.14536)">
				<title>Sheet.6</title>
				<path d="M36.09 551.42 L49.23 551.42 L49.23 536.38 L36.09 536.38 L36.09 551.42 ZM14.89 542.47 L16.68 542.47 L16.68
							 536.06 L14.89 536.06 L14.89 542.47 ZM14.89 551.71 L16.68 551.71 L16.68 545.3 L14.89 545.3 L14.89 551.71
							 ZM10.63 542.47 L12.43 542.47 L12.43 536.06 L10.63 536.06 L10.63 542.47 ZM10.63 551.71 L12.43 551.71
							 L12.43 545.3 L10.63 545.3 L10.63 551.71 ZM4.25 542.47 L6.05 542.47 L6.05 536.06 L4.25 536.06 L4.25 542.47
							 ZM4.25 551.71 L6.05 551.71 L6.05 545.3 L4.25 545.3 L4.25 551.71 ZM0 542.47 L1.79 542.47 L1.79 536.06
							 L0 536.06 L0 542.47 ZM0 551.71 L1.79 551.71 L1.79 545.3 L0 545.3 L0 551.71 ZM33.82 586.45 L33.82 587.7
							 L49.39 587.69 L49.39 586.44 L33.82 586.45 ZM33.82 590.24 L33.82 591.49 L49.39 591.48 L49.39 590.24 L33.82
							 590.24 ZM33.82 594.03 L33.82 595.28 L49.39 595.27 L49.39 594.03 L33.82 594.03 ZM2.96 587.7 L18.52 587.7
							 L18.52 586.45 L2.95 586.45 L2.96 587.7 ZM2.96 591.49 L18.52 591.49 L18.52 590.24 L2.95 590.24 L2.96
							 591.49 ZM2.96 595.28 L18.52 595.28 L18.52 594.03 L2.95 594.03 L2.96 595.28 Z" class="st3"/>
			</g>
			<g id="shape7-9" transform="translate(49.0815,-50.4059)">
				<title>Sheet.7</title>
				<path d="M8.15 583.79 A1.11073 1.11073 -180 1 0 10.24 584.56 A1.11073 1.11073 -180 1 0 8.15 583.79 ZM8.17 587.08
							 A1.11073 1.11073 -180 1 0 10.22 587.93 A1.11073 1.11073 -180 1 0 8.17 587.08 ZM8.18 590.39 A1.11073
							 1.11073 -180 1 0 10.21 591.28 A1.11073 1.11073 -180 1 0 8.18 590.39 ZM8.18 593.71 A1.11073 1.11073 -180
							 1 0 10.21 594.6 A1.11073 1.11073 -180 1 0 8.18 593.71 ZM4.1 583.84 A1.11073 1.11073 -180 1 0 6.21 584.51
							 A1.11073 1.11073 -180 1 0 4.1 583.84 ZM4.11 587.14 A1.11073 1.11073 -180 1 0 6.2 587.87 A1.11073 1.11073
							 -180 1 0 4.11 587.14 ZM4.11 590.44 A1.11073 1.11073 -180 1 0 6.19 591.22 A1.11073 1.11073 -180 1 0 4.11
							 590.44 ZM4.11 593.77 A1.11073 1.11073 -180 1 0 6.19 594.55 A1.11073 1.11073 -180 1 0 4.11 593.77 ZM0.04
							 583.9 A1.11144 1.11144 -180 1 0 2.19 584.46 A1.11144 1.11144 -180 1 0 0.04 583.9 ZM0.05 587.19 A1.11144
							 1.11144 -180 1 0 2.18 587.82 A1.11144 1.11144 -180 1 0 0.05 587.19 ZM0.05 590.5 A1.11144 1.11144 -180
							 1 0 2.17 591.16 A1.11144 1.11144 -180 1 0 0.05 590.5 ZM0.05 593.83 A1.11144 1.11144 -180 1 0 2.17 594.49
							 A1.11144 1.11144 -180 1 0 0.05 593.83 Z" class="st4"/>
			</g>
		</g>
		<g id="group8-12" transform="translate(446.457,-198.425)">
			<title>Server</title>
			<g id="shape9-13" transform="translate(12.8133,1.13687E-13)">
				<title>Sheet.9</title>
				<rect x="0" y="524.409" width="45.2395" height="70.8661" class="st5"/>
			</g>
			<g id="shape10-15" transform="translate(46.625,-30.2513)">
				<title>Sheet.10</title>
				<ellipse cx="2.73472" cy="592.541" rx="2.73472" ry="2.73472" class="st6"/>
			</g>
			<g id="shape11-17" transform="translate(30.0295,-11.6164)">
				<title>Sheet.11</title>
				<path d="M-0 595.28 L22.06 595.28 L22.06 593.5 L-0 593.5 L-0 595.28 ZM-0 589.9 L22.06 589.9 L22.06 588.13 L-0 588.13
							 L-0 589.9 ZM-0 584.53 L22.06 584.53 L22.06 582.76 L-0 582.76 L-0 584.53 Z" class="st3"/>
			</g>
		</g>
		<g id="shape12-20" transform="translate(504.51,-226.772)">
			<title>Dynamic connector</title>
			<path d="M9.45 588.19 L9.81 588.19 L44.12 588.19" class="st7"/>
		</g>
		<g id="group13-29" transform="translate(113.386,-198.425)">
			<title>Laptop</title>
			<g id="shape14-30" transform="translate(0,-6.56146)">
				<title>Sheet.14</title>
				<path d="M0 595.28 L70.87 595.28 L70.87 587.85 L64.8 577.59 L5.71 577.59 L0 587.85 L0 595.28 ZM64.99 575.9 L64.99
							 543.46 C64.99 540.19 62.34 537.53 59.06 537.53 L11.64 537.53 C8.37 537.53 5.71 540.19 5.71 543.46 L5.71
							 575.9 L64.99 575.9 Z" class="st5"/>
			</g>
			<g id="shape15-32" transform="translate(6.97248,-14.8259)">
				<title>Sheet.15</title>
				<path d="M2.86 590.16 L0 595.28 L56.8 595.28 L53.93 590.16 L2.86 590.16 Z" class="st3"/>
			</g>
			<g id="shape16-35" transform="translate(11.4259,-32.1061)">
				<title>Sheet.16</title>
				<rect x="0" y="568.625" width="48.0152" height="26.6509" class="st9"/>
			</g>
		</g>
		<g id="shape17-37" transform="translate(178.376,-226.772)">
			<title>Dynamic connector.8</title>
			<path d="M9.45 588.19 L9.81 588.19 L271.08 588.19" class="st7"/>
		</g>
		<g id="shape19-44" transform="translate(197.153,-240.945)">
			<title>Sheet.19</title>
			<desc>ssh connection to mahti login node</desc>
			<rect x="0" y="575.276" width="239.236" height="20" class="st5"/>
			<text x="34.03" y="588.88" class="st10">ssh connection to mahti login node</text>		</g>
		<g id="shape22-47" transform="translate(92.9802,-300.607)">
			<title>Sheet.22</title>
			<desc>TmoleX installation Job preparation &#38; analysis</desc>
			<rect x="0" y="555.725" width="182.544" height="39.5504" class="st5"/>
			<text x="44.47" y="571.9" class="st10">TmoleX installation <tspan x="26.89" dy="1.2em" class="st11">Job preparation &#38; analysis</tspan></text>		</g>
		<g id="shape23-51" transform="translate(389.764,-276.378)">
			<title>Sheet.23</title>
			<desc>Mahti login node Launch job to queuing system Run define</desc>
			<rect x="0" y="525.738" width="134.646" height="69.5374" class="st5"/>
			<text x="25.72" y="542.51" class="st10">Mahti login node <tspan x="13.14" dy="1.2em" class="st11">Launch job to queuing </tspan><tspan
						x="50.13" dy="1.2em" class="st11">system </tspan><tspan x="40.92" dy="1.2em" class="st11">Run define</tspan></text>		</g>
		<g id="shape24-57" transform="translate(538.583,-278.72)">
			<title>Sheet.24</title>
			<desc>Mahti compute nodes Perform simulations</desc>
			<rect x="0" y="529.094" width="94.9606" height="66.1818" class="st5"/>
			<text x="9.79" y="544.18" class="st10">Mahti compute <tspan x="32.68" dy="1.2em" class="st11">nodes </tspan><tspan
						x="27.42" dy="1.2em" class="st11">Perform </tspan><tspan x="19.51" dy="1.2em" class="st11">simulations</tspan></text>		</g>
	</g>
</svg>
